# xmcd
#
# Track frame offsets:
#	150
#	17157
#	33415
#	48122
#	62927
#	73897
#	85445
#	97255
#	110397
#	121332
#	133867
#
# Disc length: 1952 seconds
#
# Revision: 1
# Processed by: cddbd v1.4PL0 Copyright (c) Steve Scherf et al.
# Submitted via: audiograbber 1.82.02
#
DISCID=a0079e0b
DTITLE=Lynn Anderson - Country Songs
DYEAR=2000
DGENRE=Country
TTITLE0=Blue Bayou
TTITLE1=The Devil went down to Ggeorgia
TTITLE2=Faithless Love
TTITLE3=Gone at Last
TTITLE4=Heaven´s Just A Sin Away
TTITLE5=Listen To A Country Song
TTITLE6=Rodeo Cowboy
TTITLE7=Rose Garden
TTITLE8=Someday Soon
TTITLE9=Stand By Your Man
TTITLE10=Top Of The World
EXTD=Sampler
EXTT0=
EXTT1=
EXTT2=
EXTT3=
EXTT4=
EXTT5=
EXTT6=
EXTT7=
EXTT8=
EXTT9=
EXTT10=
PLAYORDER=
